<svg fill="none" height="24" viewBox="0 0 24 24" width="24" xmlns="http://www.w3.org/2000/svg"><g stroke="#292d32" stroke-linecap="round" stroke-linejoin="round" stroke-width="1.5"><path d="m18.04 13.55c-.42.41-.66 1-.6 1.63.09 1.08 1.08 1.87 2.16 1.87h1.9v1.19c0 2.07-1.69 3.76-3.76 3.76h-10.11c.31-.26.58-.58.79-.94.37-.6.58-1.31.58-2.06 0-2.21-1.79-4-4-4-.94 0-1.81.33-2.5.88v-4.37c0-2.06999 1.69-3.76 3.76-3.76h11.48c2.07 0 3.76 1.69001 3.76 3.76v1.44h-2.02c-.56 0-1.07.22-1.44.6z"/><path d="m2.5 12.4098v-4.56994c0-1.19.73-2.25004 1.84-2.67004l7.94-3c1.24-.47 2.57.45003 2.57 1.78003v3.79998" opacity=".4"/><path d="m22.5608 13.9702v2.06c0 .55-.44 1-1 1.02h-1.96c-1.08 0-2.07-.79-2.16-1.87-.06-.63.18-1.22.6-1.63.37-.38.88-.6 1.44-.6h2.08c.56.02 1 .47 1 1.02z"/><path d="m7 12h7" opacity=".4"/><g stroke-miterlimit="10"><path d="m9 19c0 .75-.21 1.46-.58 2.06-.21.36-.48.68-.79.94-.7.63-1.62 1-2.63 1-1.46 0-2.73-.78-3.42-1.94-.37-.6-.58-1.31-.58-2.06 0-1.26.58-2.39 1.5-3.12.69-.55 1.56-.88 2.5-.88 2.21 0 4 1.79 4 4z"/><path d="m6.48976 18.98h-2.97999"/><path d="m5 17.52v2.99"/></g></g></svg>