<svg height="20" viewBox="0 0 20 20" width="20" xmlns="http://www.w3.org/2000/svg"><path d="m8.19546398 0c4.52622972 0 8.19546402 3.61950128 8.19546402 8.08438239 0 2.01163401-.7448239 3.85166291-1.9772725 5.26637391l5.3878658 5.4735866c.2702562.2745733.2636981.7132754-.014648.9798686-.278346.2665931-.723076.2601239-.9933322-.0144494l-5.3825029-5.4691117c-1.4170221 1.1545044-3.2341845 1.8481144-5.21557422 1.8481144-4.52622978 0-8.19546398-3.6195013-8.19546398-8.08438241s3.6692342-8.08438239 8.19546398-8.08438239zm0 1.38589412c-3.75030467 0-6.7905273 2.99901535-6.7905273 6.69848827 0 3.69947291 3.04022263 6.69848831 6.7905273 6.69848831 3.75030462 0 6.79052732-2.9990154 6.79052732-6.69848831 0-3.69947292-3.0402227-6.69848827-6.79052732-6.69848827z" fill="#555"/></svg>